<svg xmlns="http://www.w3.org/2000/svg" viewBox="0 0 240 240" style="width:100%;height:100%;content-visibility:visible"><defs><clipPath id="prefix__a"><path d="M0 0h240v240H0z"/></clipPath><clipPath id="prefix__b"><path d="M0 0h500v500H0z"/></clipPath></defs><g clip-path="url(#prefix__a)"><g clip-path="url(#prefix__b)" display="block"><path class="prefix__primary" fill="#121331" d="M169.871 69.297a7.5 7.5 0 00-10.303 10.875l.274.272 33.836 32.056H27.5a7.5 7.5 0 000 15h166.178l-33.836 32.056a7.499 7.499 0 00-.286 10.602 7.499 7.499 0 0010.602.286l47.5-45 .048-.048c.06-.058.119-.116.177-.176l.097-.104c.046-.049.092-.098.136-.148l.13-.151c.035-.042.07-.083.104-.126a8.8 8.8 0 00.253-.335l.07-.099c.058-.084.114-.17.169-.257l.027-.043A7.465 7.465 0 00220 120a7.46 7.46 0 00-1.131-3.958l-.027-.043a7.582 7.582 0 00-.169-.257l-.07-.098a6.212 6.212 0 00-.253-.335l-.104-.127a9.347 9.347 0 00-.13-.151c-.044-.05-.09-.099-.136-.148l-.097-.104c-.058-.06-.117-.117-.177-.175l-.048-.048-47.5-45-.287-.259z" display="block"/></g></g></svg>