<svg xmlns="http://www.w3.org/2000/svg" viewBox="0 0 500 500" style="width:100%;height:100%;content-visibility:visible"><defs><clipPath id="prefix__a"><path d="M0 0h500v500H0z"/></clipPath><clipPath id="prefix__b"><path d="M0 0h500v500H0z"/></clipPath></defs><g clip-path="url(#prefix__a)"><g clip-path="url(#prefix__b)" display="block"><g class="prefix__primary prefix__design" display="block"><path class="prefix__primary" fill="#121330" d="M335.824 94.193c-27.079 0-52.7 10.624-71.863 29.787-5.208 5.208-9.79 11.248-13.956 17.497-3.958-6.249-8.749-12.29-14.581-18.122-39.577-38.952-103.942-38.743-143.31.625-39.37 39.369-39.786 108.941-.626 148.518l147.268 149.976c2.917 2.916 6.874 4.583 11.249 4.583 4.374 0 8.123-1.667 11.248-4.583l146.643-149.351c39.577-39.785 39.577-109.358 0-149.143-19.372-19.163-44.784-29.787-72.072-29.787zm49.784 156.642c0 .208 0 .208 0 0L250.005 389.146l-136.02-138.52c-27.08-27.495-26.87-77.279.416-104.566 13.54-13.748 31.454-20.413 49.367-20.413 18.123 0 36.245 6.873 50.41 20.83 7.081 7.082 12.289 15.206 15.622 24.996 4.374 11.248 6.665 14.58 6.665 14.58 2.916 4.792 8.124 7.708 13.54 7.708 5.415 0 10.831-2.916 13.54-7.5 0 0 2.082-3.54 6.456-14.788 3.75-9.79 9.166-18.33 16.248-25.413 26.454-26.454 72.905-26.454 99.567 0 27.288 27.496 27.288 77.488-.208 104.775z"/></g></g></g></svg>