<svg xmlns="http://www.w3.org/2000/svg" viewBox="0 0 500 500" style="width:100%;height:100%;content-visibility:visible"><defs><clipPath id="prefix__a"><path d="M0 0h500v500H0z"/></clipPath><clipPath id="prefix__b"><path d="M0 0h500v500H0z"/></clipPath></defs><g clip-path="url(#prefix__a)"><g clip-path="url(#prefix__b)" display="block"><g class="prefix__primary prefix__design" display="block"><path class="prefix__primary" fill="#121331" d="M250.004 458.362a15.653 15.653 0 01-11.973-5.571l-116.46-138.334c-17.468-21.01-29.402-45.888-34.586-72.03-2.473-10.875-3.674-22.029-3.674-34.091 0-91.915 74.778-166.692 166.693-166.692 91.914 0 166.692 74.777 166.692 166.692 0 12.065-1.202 23.218-3.674 34.088-5.182 26.145-17.117 51.021-34.525 71.959l-116.52 138.408a15.653 15.653 0 01-11.973 5.571zm0-385.419c-74.656 0-135.393 60.737-135.393 135.393 0 9.768.961 18.71 2.938 27.338.036.158.069.317.101.476 4.149 21.105 13.807 41.238 27.928 58.223l104.426 124.039L354.49 294.299c14.061-16.911 23.718-37.044 27.866-58.149.032-.16.066-.319.102-.478 1.978-8.624 2.938-17.565 2.938-27.336 0-74.656-60.737-135.393-135.392-135.393z"/></g><g class="prefix__primary prefix__design" display="block"><path class="prefix__primary" fill="#121331" d="M250.004 291.694c-45.964 0-83.359-37.394-83.359-83.358 0-45.964 37.395-83.358 83.359-83.358 45.964 0 83.358 37.394 83.358 83.358 0 45.964-37.394 83.358-83.358 83.358zm0-135.417c-28.705 0-52.059 23.354-52.059 52.059s23.354 52.059 52.059 52.059 52.058-23.354 52.058-52.059-23.353-52.059-52.058-52.059z"/></g></g></g></svg>