<svg xmlns="http://www.w3.org/2000/svg" viewBox="0 0 500 500" style="width:100%;height:100%;content-visibility:visible"><defs><clipPath id="prefix__a"><path d="M0 0h500v500H0z"/></clipPath><clipPath id="prefix__b"><path d="M0 0h500v500H0z"/></clipPath></defs><g clip-path="url(#prefix__a)"><g clip-path="url(#prefix__b)" display="block"><g class="prefix__primary prefix__design" display="block"><path class="prefix__primary" fill="#121331" d="M187.527 355.985l-.02 39.827c0 34.37 28.12 62.49 62.49 62.49 34.369 0 62.49-28.12 62.49-62.49l.02-39.827h-124.98zm93.714 39.827c0 17.289-13.956 31.245-31.245 31.245s-31.245-13.956-31.245-31.245l.021-30.328h62.49l-.02 30.328z"/></g><g class="prefix__primary prefix__design" display="block"><path class="prefix__primary" fill="#121331" d="M377.684 277.914c-1.666-3.75-2.708-7.707-2.708-11.665v-57.907c0-63.532-47.7-116.231-109.357-123.938v-27.08c0-8.54-7.082-15.622-15.623-15.622-8.54 0-15.622 7.082-15.622 15.622v27.08c-61.657 7.707-109.358 60.406-109.358 123.938v57.907c0 3.958-1.041 8.124-2.708 11.665l-37.285 74.572c-2.5 4.79-2.083 10.623.625 15.206 2.916 4.582 7.915 7.29 13.33 7.29h302.036c5.416 0 10.415-2.708 13.331-7.499 2.916-4.582 3.125-10.415.625-15.206l-37.286-74.363zm-253.5 65.823l26.037-51.867a57.224 57.224 0 006.04-25.62v-57.908c0-51.658 42.077-93.735 93.735-93.735 51.659 0 93.735 42.077 93.735 93.735v57.907c0 8.749 2.083 17.706 6.041 25.621l26.038 51.867H124.183z"/></g></g></g></svg>