<svg xmlns="http://www.w3.org/2000/svg" viewBox="0 0 500 500" style="width:100%;height:100%;content-visibility:visible"><defs><clipPath id="prefix__a"><path d="M0 0h500v500H0z"/></clipPath><clipPath id="prefix__b"><path d="M0 0h500v500H0z"/></clipPath></defs><g clip-path="url(#prefix__a)"><g clip-path="url(#prefix__b)" display="block"><g class="prefix__primary prefix__design" display="block"><path class="prefix__primary" fill="#121331" d="M421.85 83.362h-26.038-130.188V57.324c0-8.54-7.082-15.622-15.622-15.622s-15.623 7.082-15.623 15.622v26.038H104.192 78.154c-8.54 0-15.622 7.082-15.622 15.622s7.082 15.623 15.622 15.623h12.082l31.87 292.661c3.124 29.162 27.704 51.034 56.866 51.034h142.06c29.37 0 53.742-21.872 56.866-51.034l31.87-292.661h12.081c8.54 0 15.623-7.082 15.623-15.623 0-8.54-7.082-15.622-15.623-15.622zM346.86 403.936c-1.458 13.123-12.498 23.12-25.829 23.12h-142.06c-13.332 0-24.371-9.997-25.83-23.12l-22.496-206.01h238.712l-22.497 206.01zm25.83-237.254H127.313l-5.624-52.075h256.834l-5.832 52.075z"/><path class="prefix__primary" fill="#121331" d="M286.246 250.419c-8.54 0-15.622 7.082-15.622 15.622v93.735c0 8.54 7.082 15.623 15.622 15.623s15.623-7.083 15.623-15.623v-93.735c0-8.54-6.874-15.622-15.623-15.622zM213.55 250.002c-8.54 0-15.623 7.082-15.623 15.622v93.735c0 8.54 7.082 15.623 15.622 15.623s15.623-7.082 15.623-15.623v-93.735c0-8.54-7.082-15.622-15.623-15.622z"/></g></g></g></svg>